# AST/ASF file generated using VICON BodyLanguage
# -----------------------------------------------
:version 1.10
:name VICON
:units
  mass 1.0
  length 0.45
  angle deg
:documentation
   .ast/.asf automatically generated from VICON data using
   VICON BodyBuilder and BodyLanguage model FoxedUp or BRILLIANT.MOD
:root
   order TX TY TZ RX RY RZ
   axis XYZ
   position 0 0 0  
   orientation 0 0 0 
:bonedata
  begin
     id 1 
     name lhipjoint
     direction 0.716248 -0.617586 0.324924 
     length 2.63557 
     axis 0 0 0  XYZ
  end
  begin
     id 2 
     name lfemur
     direction 0.34202 -0.939693 0  
     length 7.01235  
     axis 0 0 20  XYZ
    dof rx ry rz
    limits (-160.0 20.0)
           (-70.0 70.0)
           (-60.0 70.0)
  end
  begin
     id 3 
     name ltibia
     direction 0.34202 -0.939693 0   
     length 8.14348   
     axis 0 0 20   XYZ
    dof rx
    limits (-10.0 170.0)
  end
  begin
     id 4 
     name lfoot
     direction 0.0982064 -0.26982 0.95789   
     length 1.99077   
     axis -90 7.62852e-016 20   XYZ
    dof rx rz
    limits (-45.0 90.0)
           (-70.0 20.0)
  end
  begin
     id 5 
     name ltoes
     direction 1.53511e-011 -4.21891e-011 1   
     length 0.99735   
     axis -90 7.62852e-016 20   XYZ
    dof rx
    limits (-90.0 20.0)
  end
  begin
     id 6 
     name rhipjoint
     direction -0.687828 -0.642391 0.337975   
     length 2.5338  
     axis 0 0 0  XYZ 
  end
  begin
     id 7 
     name rfemur
     direction -0.34202 -0.939693 0   
     length 6.90199   
     axis 0 0 -20   XYZ
    dof rx ry rz
    limits (-160.0 20.0)
           (-70.0 70.0)
           (-70.0 60.0)
  end
  begin
     id 8 
     name rtibia
     direction -0.34202 -0.939693 0   
     length 8.07725   
     axis 0 0 -20   XYZ
    dof rx
    limits (-10.0 170.0)
 end
 begin
     id 9 
     name rfoot
     direction -0.0912384 -0.250675 0.963762   
     length 2.11621  
     axis -90 -7.62852e-016 -20   XYZ
    dof rx rz
    limits (-45.0 90.0)
           (-20.0 70.0)
  end
  begin
     id 10 
     name rtoes
     direction -1.5359e-011 -4.21894e-011 1   
     length 1.06031   
     axis -90 -7.62852e-016 -20   XYZ
    dof rx
    limits (-90.0 20.0)
  end
  begin
     id 11 
     name lowerback
     direction -0.0403572 0.987953 -0.149396   
     length 2.05637   
     axis 0 0 0   XYZ
    dof rx ry rz
    limits (-20.0 45.0)
           (-30.0 30.0)
           (-30.0 30.0)
  end
  begin
     id 12 
     name upperback
     direction -0.00512151 0.997598 0.0690792   
     length 2.01086   
     axis 0 0 0   XYZ
    dof rx ry rz
    limits (-20.0 45.0)
           (-30.0 30.0)
           (-30.0 30.0)
  end
  begin
     id 13 
     name thorax
     direction 0.0136133 0.989392 0.14463   
     length 2.09035   
     axis 0 0 0   XYZ
    dof rx ry rz
    limits (-20.0 45.0)
           (-30.0 30.0)
           (-30.0 30.0)
  end
  begin
     id 14 
     name lowerneck
     direction 0.0250714 0.992811 0.11704   
     length 1.70806   
     axis 0 0 0   XYZ
    dof rx ry rz
    limits (-20.0 45.0)
           (-30.0 30.0)
           (-30.0 30.0)
  end
  begin
     id 15 
     name upperneck
     direction -0.0519205 0.998394 -0.0226787   
     length 1.6689   
     axis 0 0 0   XYZ
    dof rx ry rz
    limits (-20.0 45.0)
           (-30.0 30.0)
           (-30.0 30.0)
  end
  begin
     id 16
     name head
     direction -0.0201693 0.999547 -0.0223192  
     length 1.83412  
     axis 0 0 0   XYZ
    dof rx ry rz
    limits (-20.0 45.0)
           (-30.0 30.0)
           (-30.0 30.0)
  end
  begin
     id 17 
     name lclavicle
     direction 0.89585 0.444077 -0.0157448  
     length 3.39587  
     axis 0 0 0   XYZ
    dof ry rz
    limits (-20.0 10.0)
           (0.0 20.0)
  end
  begin
     id 18 
     name lhumerus
     direction 1 -4.48956e-011 1.99132e-028   
     length 5.79199   
     axis 180 -30 -90   XYZ
    dof rx ry rz
    limits (-60.0 90.0)
           (-90.0 90.0)
           (-90.0 90.0)
  end
  begin
     id 19
     name lradius
     direction 1 -4.48974e-011 8.72912e-028   
     length 3.49908   
     axis 180 -30 -90   XYZ
    dof rx
    limits (-10.0 170.0)
  end
  begin
     id 20
     name lwrist
     direction 1 -4.48994e-011 4.76442e-027   
     length 1.74954   
     axis -3.27502e-015 90 90   XYZ
    dof ry
    limits (-180.0 0.0)
 end
  begin
     id 21 
     name lhand
     direction 1 -4.48945e-011 9.531e-027   
     length 0.593861   
     axis -6.08098e-015 90 90   XYZ
    dof rx rz
    limits (-90.0 90.0)
           (-45.0 45.0)
  end
  begin
     id 22 
     name lfingers
     direction 1 -4.48945e-011 1.9062e-026   
     length 0.478786   
     axis -1.21619e-014 90 90   XYZ
    dof rx
    limits (0.0 90.0)
  end
  begin
     id 23
     name lthumb
     direction 0.707107 -6.34904e-011 0.707107   
     length 0.687444   
     axis -90 45 -9.86923e-015   XYZ
    dof rx rz
    limits (-45.0 45.0)
           (-45.0 45.0)
  end
  begin
     id 24 
     name rclavicle
     direction -0.940466 0.338394 0.0318182   
     length 3.51226  
     axis 0 0 0   XYZ 
    dof ry rz
    limits (-10.0 20.0)
           (-20.0 0.0)
  end
  begin
     id 25 
     name rhumerus
     direction -1 -4.48976e-011 2.0905e-027  
     length 5.73799   
     axis 180 30 90   XYZ
    dof rx ry rz
    limits (-90.0 60.0)
           (-90.0 90.0)
           (-90.0 90.0)
  end
  begin
     id 26 
     name rradius
     direction -1 -4.48968e-011 -9.39692e-029   
     length 3.57916   
     axis 180 30 90   XYZ
    dof rx
    limits (-10.0 170.0)
  end
  begin
     id 27 
     name rwrist
     direction -1 -4.48959e-011 4.7652e-027   
     length 1.78958   
     axis -3.27502e-015 -90 -90   XYZ
    dof ry
    limits (-180.0 0.0)
  end
  begin
     id 28
     name rhand
     direction -1 -4.49042e-011 9.5267e-027   
     length 0.615577   
     axis -6.08098e-015 -90 -90   XYZ
    dof rx rz
    limits (-90.0 90.0)
           (-45.0 45.0)
  end
  begin
     id 29
     name rfingers
     direction -1 -4.48935e-011 1.90629e-026   
     length 0.496294   
     axis -1.21619e-014 -90 -90   XYZ
    dof rx
    limits (0.0 90.0)
  end
  begin
     id 30
     name rthumb
     direction -0.707107 -6.34977e-011 0.707107   
     length 0.712582   
     axis -90 -45 9.86923e-015   XYZ
    dof rx rz
    limits (-45.0 45.0)
           (-45.0 45.0)
  end
:hierarchy
  begin
    root lhipjoint rhipjoint lowerback
    lhipjoint lfemur
    lfemur ltibia
    ltibia lfoot
    lfoot ltoes
    rhipjoint rfemur
    rfemur rtibia
    rtibia rfoot
    rfoot rtoes
    lowerback upperback
    upperback thorax
    thorax lowerneck lclavicle rclavicle
    lowerneck upperneck
    upperneck head
    lclavicle lhumerus
    lhumerus lradius
    lradius lwrist
    lwrist lhand lthumb
    lhand lfingers
    rclavicle rhumerus
    rhumerus rradius
    rradius rwrist
    rwrist rhand rthumb
    rhand rfingers
  end

#!OML:ASF H:\Terrain\Patient Classification 1\PaulMetrics\March17Take5\PaulMetrics.ASF
:FULLY-SPECIFIED
:DEGREES
131
root 16.3707 16.984 -25.3863 1.9545 -45.5552 4.96882
lowerback 1.87121 0.746321 -6.34218
upperback -3.62923 0.671421 -0.714246
thorax -4.89261 0.545708 2.7705
lowerneck -11.24 4.78934 -0.72619
upperneck 9.82864 6.70052 -1.17541
head 4.80285 3.17867 0.244969
rclavicle -6.86164e-014 9.24349e-015
rhumerus -48.1482 13.5618 -90.9163
rradius 41.9482
rwrist -4.9573
rhand -14.7017 -38.986
rfingers 7.12502
rthumb 11.4524 -68.6532
lclavicle -6.86164e-014 9.24349e-015
lhumerus -35.2753 3.94244 77.8954
lradius 31.1761
lwrist 14.5628
lhand -11.128 -24.2925
lfingers 7.12502
lthumb 14.8972 5.15189
rfemur -15.7604 14.1324 12.5111
rtibia 32.3158
rfoot -27.5968 -20.6652
rtoes 12.992
lfemur -17.1264 -3.93022 -20.2705
ltibia 33.2536
lfoot -24.5088 8.83041
ltoes 1.26621
132
root 16.3681 16.974 -25.3857 1.61109 -45.6845 5.38041
lowerback 1.88196 0.780315 -6.67908
upperback -3.62504 0.697977 -0.77689
thorax -4.90391 0.569945 2.89174
lowerneck -11.0635 4.77003 -0.69848
upperneck 9.64955 6.67168 -1.24357
head 4.72158 3.16511 0.209998
rclavicle -2.12917e-015 5.06901e-015
rhumerus -48.1971 13.4389 -90.8495
rradius 41.8818
rwrist -4.52571
rhand -14.6797 -38.65
rfingers 7.12502
rthumb 11.4736 -68.316
lclavicle -2.12917e-015 5.06901e-015
lhumerus -35.4281 3.97902 77.836
lradius 31.3389
lwrist 14.8266
lhand -10.165 -23.7019
lfingers 7.12502
lthumb 15.8247 5.67135
rfemur -15.7718 14.233 12.1953
rtibia 32.3902
rfoot -27.8251 -20.5214
rtoes 13.9296
lfemur -16.8518 -4.14258 -20.5581
ltibia 33.1518
lfoot -24.7996 8.73146
ltoes 1.40524
133
root 16.3674 16.9633 -25.3828 1.28513 -45.7805 5.76025
lowerback 1.88129 0.78299 -6.96766
upperback -3.60378 0.688043 -0.811539
thorax -4.88644 0.57374 3.0177
lowerneck -11.0709 4.77889 -0.75843
upperneck 9.65507 6.69585 -1.26563
head 4.72342 3.1731 0.214721
rclavicle 5.17011e-014 3.27995e-014
rhumerus -48.1917 13.4388 -90.7307
rradius 41.7751
rwrist -3.99023
rhand -15.3479 -35.7097
rfingers 7.12502
rthumb 10.8292 -65.4105
lclavicle 5.17011e-014 3.27995e-014
lhumerus -35.5131 4.43083 77.7444
lradius 31.2174
lwrist 14.3735
lhand -9.93092 -23.4558
lfingers 7.12502
lthumb 16.0502 5.89944
rfemur -15.8127 14.2575 11.8957
rtibia 32.5382
rfoot -28.0938 -20.3784
rtoes 13.2416
lfemur -16.5735 -4.40088 -20.8314
ltibia 33.0359
lfoot -25.0152 8.75598
ltoes 1.02429
134
root 16.3646 16.9757 -25.3794 1.27883 -45.7818 5.78062
lowerback 1.87921 0.79512 -6.9713
upperback -3.59377 0.704175 -0.824824
thorax -4.87628 0.581042 3.00497
lowerneck -10.9843 4.75337 -0.705916
upperneck 9.52846 6.65393 -1.30745
head 4.67312 3.1544 0.186291
rclavicle 8.75631e-014 -1.19271e-014
rhumerus -48.1985 13.3804 -90.7031
rradius 41.7704
rwrist -4.03098
rhand -15.4791 -30.4129
rfingers 7.12502
rthumb 10.7026 -60.1203
lclavicle 8.75631e-014 -1.19271e-014
lhumerus -35.4821 4.46076 77.8216
lradius 30.9536
lwrist 13.7485
lhand -10.9727 -23.1382
lfingers 7.12502
lthumb 15.0468 6.29499
rfemur -15.7784 14.0153 11.928
rtibia 32.4843
rfoot -27.6363 -20.6315
rtoes 11.1764
lfemur -16.8055 -3.96112 -20.9104
ltibia 33.0869
lfoot -24.3464 10.0703
ltoes -7.9852
135
root 16.3688 16.9564 -25.3819 1.33126 -45.761 5.62006
lowerback 2.00691 0.81682 -6.86841
upperback -3.59808 0.7276 -0.81343
thorax -4.95394 0.59177 2.95633
lowerneck -10.837 4.7337 -0.591251
upperneck 9.35423 6.60931 -1.35642
head 4.60034 3.13734 0.143418
rclavicle 2.93673e-014 2.05742e-014
rhumerus -48.3596 13.6073 -91.1212
rradius 41.8343
rwrist -5.7422
rhand -13.4546 -26.708
rfingers 7.12502
rthumb 12.6549 -56.3046
lclavicle 2.93673e-014 2.05742e-014
lhumerus -35.4725 4.42088 77.7709
lradius 30.8086
lwrist 13.7863
lhand -10.8216 -22.9988
lfingers 7.12502
lthumb 15.1923 6.42344
rfemur -15.665 13.8221 12.1126
rtibia 32.3424
rfoot -27.0286 -20.9301
rtoes 9.62508
lfemur -16.6586 -4.26594 -20.7168
ltibia 33.2855
lfoot -25.2567 9.31669
ltoes -4.67897
136
root 16.3648 16.9781 -25.3831 1.87135 -45.6849 4.95846
lowerback 2.03503 0.804236 -6.42738
upperback -3.64301 0.732402 -0.700193
thorax -5.00893 0.58314 2.8268
lowerneck -10.1476 4.5712 0.0909384
upperneck 8.55784 6.35875 -2.23182
head 4.29239 3.00135 -0.277441
rclavicle 6.43146e-014 1.97791e-014
rhumerus -48.4798 13.8035 -91.4682
rradius 41.8075
rwrist -7.09972
rhand -16.2674 -33.5212
rfingers 7.12502
rthumb 9.94221 -63.2664
lclavicle 6.43146e-014 1.97791e-014
lhumerus -35.4664 4.60627 77.5763
lradius 30.7395
lwrist 14.1227
lhand -9.79171 -23.2414
lfingers 7.12502
lthumb 16.1842 6.10293
rfemur -15.5721 14.1174 12.6006
rtibia 32.1105
rfoot -27.523 -20.7616
rtoes 12.02
lfemur -17.0563 -4.05434 -20.2368
ltibia 33.4791
lfoot -24.6336 8.74904
ltoes 0.81684
137
root 16.3699 16.9705 -25.3934 3.49243 -45.4343 3.23954
lowerback 1.81198 0.715244 -5.26468
upperback -3.78451 0.69246 -0.348101
thorax -5.00554 0.530143 2.54655
lowerneck -8.54026 4.24876 1.43737
upperneck 6.41747 5.85186 -4.02311
head 3.80604 2.74895 -1.2383
rclavicle 5.99507e-014 -2.38542e-015
rhumerus -48.4055 13.5526 -91.1307
rradius 41.7052
rwrist -5.87836
rhand -14.7516 -41.3553
rfingers 7.12502
rthumb 11.4043 -71.0252
lclavicle 5.99507e-014 -2.38542e-015
lhumerus -35.4745 4.75132 77.5754
lradius 30.6221
lwrist 13.9146
lhand -10.0551 -23.2466
lfingers 7.12502
lthumb 15.9306 6.11817
rfemur -16.0162 14.5387 13.8194
rtibia 32.1283
rfoot -28.2046 -20.8254
rtoes 14.5937
lfemur -17.4803 -4.17756 -18.7827
ltibia 33.4997
lfoot -25.0191 9.06274
ltoes -5.37396
138
root 16.3654 16.9792 -25.3804 1.86394 -45.6986 5.10254
lowerback 1.96402 0.796745 -6.52902
upperback -3.67519 0.72275 -0.674564
thorax -5.00417 0.583171 2.91145
lowerneck -7.45841 4.10319 2.15515
upperneck 5.24837 5.62039 -5.10531
head 3.254 2.63578 -1.76304
rclavicle 2.89403e-014 2.24627e-014
rhumerus -48.3995 13.4494 -90.8629
rradius 41.6835
rwrist -4.91644
rhand -13.6257 -39.0702
rfingers 7.12502
rthumb 12.49 -68.6769
lclavicle 2.89403e-014 2.24627e-014
lhumerus -35.5986 4.60952 77.786
lradius 30.5643
lwrist 13.4705
lhand -11.4106 -23.0124
lfingers 7.12502
lthumb 14.625 6.45188
rfemur -15.6795 14.3523 12.392
rtibia 32.0956
rfoot -28.1371 -20.3298
rtoes 14.971
lfemur -17.147 -3.9607 -20.3694
ltibia 33.4519
lfoot -24.5113 9.86404
ltoes -7.91513
139
root 16.3674 16.9627 -25.3783 1.35514 -45.8297 5.64128
lowerback 2.05336 0.85583 -6.86565
upperback -3.65349 0.773989 -0.792662
thorax -5.04413 0.619057 2.97216
lowerneck -7.27082 4.08488 2.30815
upperneck 5.13805 5.59078 -5.29623
head 3.19306 2.62128 -1.85896
rclavicle 5.82998e-015 -6.65929e-015
rhumerus -48.4747 13.4261 -90.9088
rradius 41.6404
rwrist -5.09784
rhand -14.2002 -38.1032
rfingers 7.12502
rthumb 11.9361 -67.7429
lclavicle 5.82998e-015 -6.65929e-015
lhumerus -35.7128 4.42768 77.8131
lradius 30.5751
lwrist 13.6204
lhand -11.5742 -23.094
lfingers 7.12502
lthumb 14.4673 6.3817
rfemur -15.6839 14.3127 11.9799
rtibia 32.2832
rfoot -28.0765 -20.13
rtoes 15.5873
lfemur -16.6668 -4.3421 -20.7355
ltibia 33.2872
lfoot -25.2848 8.60557
ltoes 1.33034
140
root 16.3645 16.9775 -25.3765 1.34211 -45.8925 5.66279
lowerback 2.09484 0.904389 -6.82392
upperback -3.67047 0.833717 -0.846481
thorax -5.09005 0.647498 2.88792
lowerneck -7.23932 3.99666 2.27152
upperneck 5.14416 5.47134 -5.21851
head 3.17927 2.56472 -1.83349
rclavicle -3.91342e-014 3.77691e-015
rhumerus -48.5051 13.316 -90.9344
rradius 41.5878
rwrist -5.10273
rhand -14.7354 -38.4454
rfingers 7.12502
rthumb 11.42 -68.1143
lclavicle -3.91342e-014 3.77691e-015
lhumerus -35.7628 4.14191 77.7981
lradius 30.6258
lwrist 14.1982
lhand -11.0369 -23.363
lfingers 7.12502
lthumb 14.9849 6.07484
rfemur -15.7183 14.3087 11.9724
rtibia 32.3352
rfoot -27.7977 -20.2001
rtoes 15.4354
lfemur -16.8124 -3.99384 -20.8015
ltibia 33.1764
lfoot -24.7112 10.1391
ltoes -7.7722
141
root 16.3724 16.963 -25.3778 1.51386 -45.8988 5.3742
lowerback 2.19162 0.907233 -6.56552
upperback -3.6716 0.844642 -0.798908
thorax -5.14171 0.645969 2.79114
lowerneck -7.16111 3.97393 2.30001
upperneck 5.09754 5.43674 -5.21676
head 3.14785 2.55007 -1.84107
rclavicle 3.18055e-015 9.34288e-015
rhumerus -48.545 13.4324 -91.0027
rradius 41.5985
rwrist -5.22173
rhand -15.1413 -38.9448
rfingers 7.12502
rthumb 11.0285 -68.6351
lclavicle 3.18055e-015 9.34288e-015
lhumerus -35.8034 3.84179 77.9423
lradius 30.5871
lwrist 14.3673
lhand -11.4744 -23.2146
lfingers 7.12502
lthumb 14.5635 6.25412
rfemur -15.7806 14.2626 12.1905
rtibia 32.4639
rfoot -27.6344 -20.2067
rtoes 14.8855
lfemur -16.5619 -4.31289 -20.5357
ltibia 33.1182
lfoot -25.3561 9.58788
ltoes -4.99792
